<svg id="Layer_1" class="satellite" data-name="Layer 1" xmlns="http://www.w3.org/2000/svg" viewBox="0 0 138.66 65.33">
  <defs>
    <style>.cls-1,.cls-3,.cls-4{fill:#474747;}.cls-1,.cls-2,.cls-3,.cls-4,.cls-5{stroke:#686868;stroke-miterlimit:10;}.cls-1,.cls-2,.cls-5{stroke-width:2.4px;}.cls-2{fill:#686868;}.cls-3{stroke-width:2.55px;}.cls-4{stroke-width:2.46px;}.cls-5{fill:none;}</style>
  </defs>
  <title>sattelite</title>
  <rect class="cls-1" x="57.28" y="17.29" width="24.46" height="37.26"/><rect class="cls-1" x="57.28" y="48.26" width="24.46" height="6.29"/><rect class="cls-1" x="57.28" y="17.29" width="24.46" height="4.68"/><rect class="cls-2" x="63.24" y="27.1" width="12.8" height="15.41"/><rect class="cls-3" x="60.73" y="54.55" width="17.82" height="9.51"/><rect class="cls-4" x="87.53" y="21.96" width="49.91" height="23.69"/><rect class="cls-1" x="87.53" y="21.96" width="7.13" height="23.69"/><rect class="cls-1" x="94.66" y="21.96" width="7.13" height="23.69"/><rect class="cls-1" x="101.79" y="21.96" width="7.13" height="23.69"/><rect class="cls-1" x="108.92" y="21.96" width="7.13" height="23.69"/><rect class="cls-1" x="116.05" y="21.96" width="7.13" height="23.69"/><rect class="cls-1" x="123.18" y="21.96" width="7.13" height="23.69"/><rect class="cls-1" x="130.31" y="21.96" width="7.13" height="23.69"/><rect class="cls-4" x="1.23" y="21.96" width="49.91" height="23.69"/><rect class="cls-1" x="1.23" y="21.96" width="7.13" height="23.69"/><rect class="cls-1" x="8.36" y="21.96" width="7.13" height="23.69"/><rect class="cls-1" x="15.49" y="21.96" width="7.13" height="23.69"/><rect class="cls-1" x="22.62" y="21.96" width="7.13" height="23.69"/><rect class="cls-1" x="29.75" y="21.96" width="7.13" height="23.69"/><rect class="cls-1" x="36.88" y="21.96" width="7.13" height="23.69"/><rect class="cls-5" x="44.01" y="21.96" width="7.13" height="23.69"/><line class="cls-5" x1="51.14" y1="33.81" x2="57.28" y2="33.81"/><line class="cls-5" x1="87.53" y1="33.81" x2="81.74" y2="33.81"/><polygon class="cls-1" points="86.61 17.29 51.87 17.29 57.28 8.28 81.74 8.28 86.61 17.29"/><line class="cls-5" x1="69.51" y1="8.28" x2="69.51"/>
</svg>
